<svg width="66" height="66" viewBox="0 0 66 66" fill="none" xmlns="http://www.w3.org/2000/svg">
<mask id="path-1-outside-1_1063_2226" maskUnits="userSpaceOnUse" x="0" y="0" width="66" height="66" fill="black">
<rect fill="white" width="66" height="66"/>
<path fill-rule="evenodd" clip-rule="evenodd" d="M2.5 33C2.5 38.4541 3.93162 43.5739 6.43958 48.004L32.7105 2.50135C15.9992 2.65671 2.5 16.2519 2.5 33ZM22.3607 61.593C15.7443 59.1301 10.2137 54.4364 6.68309 48.4262H22.3607V61.593ZM33 63.5C29.6927 63.5 26.5083 62.9736 23.5261 62H42.4739C39.4917 62.9736 36.3073 63.5 33 63.5ZM59.3169 48.4262C55.7863 54.4364 50.2557 59.1301 43.6393 61.593V48.4262H59.3169ZM63.5 33C63.5 38.4541 62.0684 43.5739 59.5604 48.004L33.2894 2.50134C50.0008 2.65671 63.5 16.2519 63.5 33ZM33 1C15.3269 1 1 15.3269 1 33C1 50.6731 15.3269 65 33 65C50.6731 65 65 50.6731 65 33C65 15.3269 50.6731 1 33 1ZM8.79388 46.9262H23.8607V60.5H42.1393V46.9262H57.2061L33 5L8.79388 46.9262ZM37.3623 45H41.6836V23.584H38.4756V34.8486C38.4854 35.4932 38.5 36.1621 38.5195 36.8555C38.5488 37.5391 38.5781 38.2031 38.6074 38.8477C38.6367 39.4922 38.6611 40.0635 38.6807 40.5615H38.5781L28.1045 23.584H23.8125V45H27.0059V33.8086C26.9863 33.1055 26.9619 32.4121 26.9326 31.7285C26.9131 31.0449 26.8838 30.3809 26.8447 29.7363C26.8154 29.0918 26.7812 28.4814 26.7422 27.9053H26.874L37.3623 45Z"/>
</mask>
<path fill-rule="evenodd" clip-rule="evenodd" d="M2.5 33C2.5 38.4541 3.93162 43.5739 6.43958 48.004L32.7105 2.50135C15.9992 2.65671 2.5 16.2519 2.5 33ZM22.3607 61.593C15.7443 59.1301 10.2137 54.4364 6.68309 48.4262H22.3607V61.593ZM33 63.5C29.6927 63.5 26.5083 62.9736 23.5261 62H42.4739C39.4917 62.9736 36.3073 63.5 33 63.5ZM59.3169 48.4262C55.7863 54.4364 50.2557 59.1301 43.6393 61.593V48.4262H59.3169ZM63.5 33C63.5 38.4541 62.0684 43.5739 59.5604 48.004L33.2894 2.50134C50.0008 2.65671 63.5 16.2519 63.5 33ZM33 1C15.3269 1 1 15.3269 1 33C1 50.6731 15.3269 65 33 65C50.6731 65 65 50.6731 65 33C65 15.3269 50.6731 1 33 1ZM8.79388 46.9262H23.8607V60.5H42.1393V46.9262H57.2061L33 5L8.79388 46.9262ZM37.3623 45H41.6836V23.584H38.4756V34.8486C38.4854 35.4932 38.5 36.1621 38.5195 36.8555C38.5488 37.5391 38.5781 38.2031 38.6074 38.8477C38.6367 39.4922 38.6611 40.0635 38.6807 40.5615H38.5781L28.1045 23.584H23.8125V45H27.0059V33.8086C26.9863 33.1055 26.9619 32.4121 26.9326 31.7285C26.9131 31.0449 26.8838 30.3809 26.8447 29.7363C26.8154 29.0918 26.7812 28.4814 26.7422 27.9053H26.874L37.3623 45Z" fill="#2A292C"/>
<path d="M6.43958 48.004L5.56935 48.4966L6.43105 50.0188L7.3056 48.504L6.43958 48.004ZM32.7105 2.50135L33.5766 3.00135L34.452 1.48511L32.7012 1.50139L32.7105 2.50135ZM6.68309 48.4262V47.4262H4.93587L5.82085 48.9327L6.68309 48.4262ZM22.3607 61.593L22.0118 62.5302L23.3607 63.0323V61.593H22.3607ZM22.3607 48.4262H23.3607V47.4262H22.3607V48.4262ZM23.5261 62V61L23.2157 62.9506L23.5261 62ZM42.4739 62L42.7843 62.9506L42.4739 61V62ZM43.6393 61.593H42.6393V63.0323L43.9882 62.5302L43.6393 61.593ZM59.3169 48.4262L60.1791 48.9327L61.0641 47.4262H59.3169V48.4262ZM43.6393 48.4262V47.4262H42.6393V48.4262H43.6393ZM59.5604 48.004L58.6944 48.504L59.569 50.0188L60.4306 48.4967L59.5604 48.004ZM33.2894 2.50134L33.2987 1.50139L31.548 1.48511L32.4234 3.00134L33.2894 2.50134ZM23.8607 46.9262H24.8607V45.9262H23.8607V46.9262ZM8.79388 46.9262L7.92785 46.4262L7.06183 47.9262H8.79388V46.9262ZM23.8607 60.5H22.8607V61.5H23.8607V60.5ZM42.1393 60.5V61.5H43.1393V60.5H42.1393ZM42.1393 46.9262V45.9262H41.1393V46.9262H42.1393ZM57.2061 46.9262V47.9262H58.9382L58.0721 46.4262L57.2061 46.9262ZM33 5L33.866 4.5L33 3L32.134 4.5L33 5ZM41.6836 45V46H42.6836V45H41.6836ZM37.3623 45L36.5099 45.523L36.8026 46H37.3623V45ZM41.6836 23.584H42.6836V22.584H41.6836V23.584ZM38.4756 23.584V22.584H37.4756V23.584H38.4756ZM38.4756 34.8486H37.4756V34.8562L37.4757 34.8638L38.4756 34.8486ZM38.5195 36.8555L37.5199 36.8836L37.5201 36.891L37.5204 36.8983L38.5195 36.8555ZM38.6807 40.5615V41.5615H39.7206L39.6799 40.5223L38.6807 40.5615ZM38.5781 40.5615L37.727 41.0866L38.0201 41.5615H38.5781V40.5615ZM28.1045 23.584L28.9556 23.0589L28.6626 22.584H28.1045V23.584ZM23.8125 23.584V22.584H22.8125V23.584H23.8125ZM23.8125 45H22.8125V46H23.8125V45ZM27.0059 45V46H28.0059V45H27.0059ZM27.0059 33.8086H28.0059V33.7947L28.0055 33.7808L27.0059 33.8086ZM26.9326 31.7285L25.933 31.7571L25.9332 31.7642L25.9335 31.7713L26.9326 31.7285ZM26.8447 29.7363L25.8458 29.7817L25.8461 29.7893L25.8466 29.7968L26.8447 29.7363ZM26.7422 27.9053V26.9053H25.6721L25.7445 27.9729L26.7422 27.9053ZM26.874 27.9053L27.7264 27.3823L27.4337 26.9053H26.874V27.9053ZM7.3098 47.5113C4.88468 43.2276 3.5 38.277 3.5 33H1.5C1.5 38.6313 2.97856 43.9202 5.56935 48.4966L7.3098 47.5113ZM31.8445 2.00135L5.57355 47.504L7.3056 48.504L33.5766 3.00135L31.8445 2.00135ZM3.5 33C3.5 16.8011 16.5566 3.65157 32.7198 3.5013L32.7012 1.50139C15.4417 1.66185 1.5 15.7027 1.5 33H3.5ZM5.82085 48.9327C9.46657 55.1389 15.1774 59.9861 22.0118 62.5302L22.7095 60.6558C16.3113 58.2741 10.9608 53.7339 7.54532 47.9197L5.82085 48.9327ZM22.3607 47.4262H6.68309V49.4262H22.3607V47.4262ZM23.3607 61.593V48.4262H21.3607V61.593H23.3607ZM23.2157 62.9506C26.2969 63.9565 29.586 64.5 33 64.5V62.5C29.7994 62.5 26.7197 61.9906 23.8364 61.0493L23.2157 62.9506ZM42.4739 61H23.5261V63H42.4739V61ZM33 64.5C36.414 64.5 39.7031 63.9565 42.7843 62.9506L42.1636 61.0493C39.2803 61.9906 36.2006 62.5 33 62.5V64.5ZM43.9882 62.5302C50.8226 59.9861 56.5334 55.1389 60.1791 48.9327L58.4547 47.9197C55.0392 53.7339 49.6887 58.2741 43.2905 60.6558L43.9882 62.5302ZM42.6393 48.4262V61.593H44.6393V48.4262H42.6393ZM59.3169 47.4262H43.6393V49.4262H59.3169V47.4262ZM60.4306 48.4967C63.0214 43.9202 64.5 38.6313 64.5 33H62.5C62.5 38.277 61.1153 43.2276 58.6902 47.5114L60.4306 48.4967ZM32.4234 3.00134L58.6944 48.504L60.4264 47.504L34.1555 2.00134L32.4234 3.00134ZM64.5 33C64.5 15.7027 50.5583 1.66184 33.2987 1.50139L33.2802 3.5013C49.4434 3.65157 62.5 16.8011 62.5 33H64.5ZM2 33C2 15.8792 15.8792 2 33 2V0C14.7746 0 0 14.7746 0 33H2ZM33 64C15.8792 64 2 50.1208 2 33H0C0 51.2254 14.7746 66 33 66V64ZM64 33C64 50.1208 50.1208 64 33 64V66C51.2254 66 66 51.2254 66 33H64ZM33 2C50.1208 2 64 15.8792 64 33H66C66 14.7746 51.2254 0 33 0V2ZM23.8607 45.9262H8.79388V47.9262H23.8607V45.9262ZM24.8607 60.5V46.9262H22.8607V60.5H24.8607ZM42.1393 59.5H23.8607V61.5H42.1393V59.5ZM41.1393 46.9262V60.5H43.1393V46.9262H41.1393ZM57.2061 45.9262H42.1393V47.9262H57.2061V45.9262ZM32.134 5.5L56.3401 47.4262L58.0721 46.4262L33.866 4.5L32.134 5.5ZM9.6599 47.4262L33.866 5.5L32.134 4.5L7.92785 46.4262L9.6599 47.4262ZM41.6836 44H37.3623V46H41.6836V44ZM40.6836 23.584V45H42.6836V23.584H40.6836ZM38.4756 24.584H41.6836V22.584H38.4756V24.584ZM39.4756 34.8486V23.584H37.4756V34.8486H39.4756ZM39.5191 36.8273C39.4997 36.138 39.4852 35.4734 39.4755 34.8335L37.4757 34.8638C37.4855 35.513 37.5003 36.1863 37.5199 36.8836L39.5191 36.8273ZM39.6064 38.8022C39.5771 38.1586 39.5479 37.4954 39.5186 36.8127L37.5204 36.8983C37.5498 37.5827 37.5791 38.2476 37.6085 38.8931L39.6064 38.8022ZM39.6799 40.5223C39.6603 40.0217 39.6358 39.4483 39.6064 38.8022L37.6085 38.8931C37.6377 39.5361 37.662 40.1052 37.6814 40.6007L39.6799 40.5223ZM38.5781 41.5615H38.6807V39.5615H38.5781V41.5615ZM27.2534 24.109L37.727 41.0866L39.4292 40.0365L28.9556 23.0589L27.2534 24.109ZM23.8125 24.584H28.1045V22.584H23.8125V24.584ZM24.8125 45V23.584H22.8125V45H24.8125ZM27.0059 44H23.8125V46H27.0059V44ZM26.0059 33.8086V45H28.0059V33.8086H26.0059ZM25.9335 31.7713C25.9626 32.4498 25.9868 33.1381 26.0062 33.8364L28.0055 33.7808C27.9858 33.0728 27.9612 32.3744 27.9317 31.6857L25.9335 31.7713ZM25.8466 29.7968C25.8849 30.4301 25.9138 31.0835 25.933 31.7571L27.9322 31.7C27.9124 31.0063 27.8826 30.3316 27.8429 29.6758L25.8466 29.7968ZM25.7445 27.9729C25.783 28.5409 25.8168 29.1438 25.8458 29.7817L27.8437 29.6909C27.8141 29.0398 27.7795 28.422 27.7399 27.8376L25.7445 27.9729ZM26.874 26.9053H26.7422V28.9053H26.874V26.9053ZM38.2147 44.477L27.7264 27.3823L26.0217 28.4282L36.5099 45.523L38.2147 44.477Z" fill="white" fill-opacity="0.8" mask="url(#path-1-outside-1_1063_2226)"/>
</svg>
