<svg width="20" height="18" viewBox="0 0 20 18" fill="none" xmlns="http://www.w3.org/2000/svg">
  <g clip-path="url(#clip0_669_1565)">
    <path d="M0.739999 15C-0.0300008 16.33 0.929999 18 2.47 18H17.53C19.07 18 20.03 16.33 19.26 15L11.73 1.98999C10.96 0.659993 9.04 0.659993 8.27 1.98999L0.739999 15Z" fill="white"/>
    <path d="M10 2.98999L17.53 16H2.47L10 2.98999ZM0.739999 15C-0.0300008 16.33 0.929999 18 2.47 18H17.53C19.07 18 20.03 16.33 19.26 15L11.73 1.98999C10.96 0.659993 9.04 0.659993 8.27 1.98999L0.739999 15ZM9 7.99999V9.99999C9 10.55 9.45 11 10 11C10.55 11 11 10.55 11 9.99999V7.99999C11 7.44999 10.55 6.99999 10 6.99999C9.45 6.99999 9 7.44999 9 7.99999ZM9 13H11V15H9V13Z" fill="#EA6A2E"/>
  </g>
  <defs>
    <clipPath id="clip0_669_1565">
      <rect width="20" height="18" fill="white"/>
    </clipPath>
  </defs>
</svg>
